<?xml version="1.0" encoding="utf-8" standalone="no"?>
<!-- Creator: Esri ArcMap 10.3.1.4959 -->
<!DOCTYPE svg PUBLIC "-//W3C//DTD SVG 1.1//EN"  "http://www.w3.org/Graphics/SVG/1.1/DTD/svg11.dtd">
<svg width="595.50236pt" height="842.25827pt" viewBox="0 0 595.50236 842.25827" enable-background="new 0 0 595.50236 842.25827"
	version="1.1" xmlns="http://www.w3.org/2000/svg" xmlns:xlink="http://www.w3.org/1999/xlink" >
	<g id="Layers">
		<clipPath id="SVG_CP_1">
			<path d="M0,842.25827L0,0L595.50236,0L595.50236,842.25827L0,842.25827z"/>
		</clipPath>
		<path clip-path="url(#SVG_CP_1)" fill="none" stroke="#000000" stroke-width="0.96012" stroke-miterlimit="10" stroke-linecap="round" stroke-linejoin="round" d="
			M18.48235,819.68735L18.48235,1.68018L571.75256,1.68018L571.75256,819.68735L18.48235,819.68735z"/>
	</g>
	<g id="Other">
		<g font-family="'ESRI North'" font-size="1" kerning="0" font-weight="400" fill="#000000" clip-path="url(#SVG_CP_1)" >
			<text text-anchor="start" transform="matrix(88.33121 0 0 88.32941 24.96317 814.40678)" >
				<tspan direction="ltr" unicode-bidi="embed" x="0 ">®</tspan>
			</text>
		</g>
		<path clip-path="url(#SVG_CP_1)" fill="#FFFFBE" fill-rule="evenodd" stroke="none" d="M455.57781,815.84694L455.57781,795.68479
			L519.18589,795.68479L519.18589,815.84694L455.57781,815.84694z"/>
		<g font-family="'Arial'" font-size="1" kerning="0" font-weight="700" fill="#000000" clip-path="url(#SVG_CP_1)" >
			<text text-anchor="start" transform="matrix(17.76225 0 0 17.76189 455.57781 812.08294)" >
				<tspan direction="ltr" unicode-bidi="embed" x="0 ">L</tspan>
				<tspan direction="ltr" unicode-bidi="embed" x="0.6081 ">e</tspan>
				<tspan direction="ltr" unicode-bidi="embed" x="1.17565 ">g</tspan>
				<tspan direction="ltr" unicode-bidi="embed" x="1.78375 ">e</tspan>
				<tspan direction="ltr" unicode-bidi="embed" x="2.3513 ">n</tspan>
				<tspan direction="ltr" unicode-bidi="embed" x="2.97291 ">d</tspan>
			</text>
		</g>
		<path clip-path="url(#SVG_CP_1)" fill="#000000" fill-rule="evenodd" stroke="#000000" stroke-width="0.96012" stroke-miterlimit="10" stroke-linecap="round" stroke-linejoin="round" d="
			M177.38251,815.60691L177.38251,810.56638L185.78358,810.56638L185.78358,815.60691L177.38251,815.60691z"/>
		<path clip-path="url(#SVG_CP_1)" fill="none" stroke="#000000" stroke-width="0.96012" stroke-miterlimit="10" stroke-linecap="round" stroke-linejoin="round" d="
			M185.78358,815.60691L185.78358,810.56638L193.94461,810.56638L193.94461,815.60691L185.78358,815.60691"/>
		<path clip-path="url(#SVG_CP_1)" fill="#000000" fill-rule="evenodd" stroke="#000000" stroke-width="0.96012" stroke-miterlimit="10" stroke-linecap="round" stroke-linejoin="round" d="
			M193.94461,815.60691L193.94461,810.56638L202.34568,810.56638L202.34568,815.60691L193.94461,815.60691z"/>
		<path clip-path="url(#SVG_CP_1)" fill="none" stroke="#000000" stroke-width="0.96012" stroke-miterlimit="10" stroke-linecap="round" stroke-linejoin="round" d="
			M202.34568,815.60691L202.34568,810.56638L210.74674,810.56638L210.74674,815.60691L202.34568,815.60691"/>
		<path clip-path="url(#SVG_CP_1)" fill="#000000" fill-rule="evenodd" stroke="#000000" stroke-width="0.96012" stroke-miterlimit="10" stroke-linecap="round" stroke-linejoin="round" d="
			M210.74674,815.60691L210.74674,810.56638L244.11098,810.56638L244.11098,815.60691L210.74674,815.60691z"/>
		<path clip-path="url(#SVG_CP_1)" fill="none" stroke="#000000" stroke-width="0.96012" stroke-miterlimit="10" stroke-linecap="round" stroke-linejoin="round" d="
			M244.11098,815.60691L244.11098,810.56638L277.47521,810.56638L277.47521,815.60691L244.11098,815.60691"/>
		<path clip-path="url(#SVG_CP_1)" fill="#000000" fill-rule="evenodd" stroke="#000000" stroke-width="0.96012" stroke-miterlimit="10" stroke-linecap="round" stroke-linejoin="round" d="
			M277.47521,815.60691L277.47521,810.56638L311.07948,810.56638L311.07948,815.60691L277.47521,815.60691z"/>
		<clipPath id="SVG_CP_2">
			<path d="M0,842.25827L0,0L595.50236,0L595.50236,842.25827L0,842.25827z"/>
		</clipPath>
		<g font-family="'Arial'" font-size="1" kerning="0" font-weight="400" fill="#000000" clip-path="url(#SVG_CP_2)" >
			<text text-anchor="start" transform="matrix(9.84125 0 0 9.84105 174.62216 806.00589)" >
				<tspan direction="ltr" unicode-bidi="embed" x="0 ">0</tspan>
			</text>
		</g>
		<g font-family="'Arial'" font-size="1" kerning="0" font-weight="400" fill="#000000" clip-path="url(#SVG_CP_2)" >
			<text text-anchor="start" transform="matrix(9.84125 0 0 9.84105 203.90588 806.00589)" >
				<tspan direction="ltr" unicode-bidi="embed" x="0 ">0</tspan>
				<tspan direction="ltr" unicode-bidi="embed" x="0.56096 ">,</tspan>
				<tspan direction="ltr" unicode-bidi="embed" x="0.82925 ">1</tspan>
			</text>
		</g>
		<g font-family="'Arial'" font-size="1" kerning="0" font-weight="400" fill="#000000" clip-path="url(#SVG_CP_2)" >
			<text text-anchor="start" transform="matrix(9.84125 0 0 9.84105 237.27011 806.00589)" >
				<tspan direction="ltr" unicode-bidi="embed" x="0 ">0</tspan>
				<tspan direction="ltr" unicode-bidi="embed" x="0.56096 ">,</tspan>
				<tspan direction="ltr" unicode-bidi="embed" x="0.82925 ">2</tspan>
			</text>
		</g>
		<g font-family="'Arial'" font-size="1" kerning="0" font-weight="400" fill="#000000" clip-path="url(#SVG_CP_2)" >
			<text text-anchor="start" transform="matrix(9.84125 0 0 9.84105 270.63434 806.00589)" >
				<tspan direction="ltr" unicode-bidi="embed" x="0 ">0</tspan>
				<tspan direction="ltr" unicode-bidi="embed" x="0.56096 ">,</tspan>
				<tspan direction="ltr" unicode-bidi="embed" x="0.82925 ">3</tspan>
			</text>
		</g>
		<g font-family="'Arial'" font-size="1" kerning="0" font-weight="400" fill="#000000" clip-path="url(#SVG_CP_2)" >
			<text text-anchor="start" transform="matrix(9.84125 0 0 9.84105 304.23861 806.00589)" >
				<tspan direction="ltr" unicode-bidi="embed" x="0 ">0</tspan>
				<tspan direction="ltr" unicode-bidi="embed" x="0.56096 ">,</tspan>
				<tspan direction="ltr" unicode-bidi="embed" x="0.82925 ">4</tspan>
			</text>
		</g>
		<g font-family="'Arial'" font-size="1" kerning="0" font-weight="400" fill="#000000" clip-path="url(#SVG_CP_2)" >
			<text text-anchor="start" transform="matrix(9.84125 0 0 9.84105 184.22338 806.00589)" >
				<tspan direction="ltr" unicode-bidi="embed" x="0 ">0</tspan>
				<tspan direction="ltr" unicode-bidi="embed" x="0.56096 ">,</tspan>
				<tspan direction="ltr" unicode-bidi="embed" x="0.82925 ">0</tspan>
				<tspan direction="ltr" unicode-bidi="embed" x="1.39022 ">5</tspan>
			</text>
		</g>
		<g font-family="'Arial'" font-size="1" kerning="0" font-weight="400" fill="#000000" clip-path="url(#SVG_CP_2)" >
			<text text-anchor="start" transform="matrix(9.84125 0 0 9.84105 313.47978 815.60691)" >
				<tspan direction="ltr" unicode-bidi="embed" x="0 ">M</tspan>
				<tspan direction="ltr" unicode-bidi="embed" x="0.82925 ">i</tspan>
				<tspan direction="ltr" unicode-bidi="embed" x="1.04876 ">l</tspan>
				<tspan direction="ltr" unicode-bidi="embed" x="1.29266 ">e</tspan>
				<tspan direction="ltr" unicode-bidi="embed" x="1.85362 ">s</tspan>
			</text>
		</g>
		<path clip-path="url(#SVG_CP_2)" fill="#FFFFBE" fill-rule="evenodd" stroke="#6E6E6E" stroke-width="0.96012" stroke-miterlimit="10" stroke-linecap="round" stroke-linejoin="round" d="
			M128.4163,568.62059L85.21081,525.41599L437.3355,173.05844L480.78101,216.26305L128.4163,568.62059z"/>
		<g font-family="'Arial'" font-size="1" kerning="0" font-weight="700" fill="#000000" clip-path="url(#SVG_CP_2)" >
			<text text-anchor="start" transform="matrix(32.24816 -32.24751 32.24816 32.24751 122.7098 555.60498)" >
				<tspan direction="ltr" unicode-bidi="embed" x="0 ">H</tspan>
				<tspan direction="ltr" unicode-bidi="embed" x="0.7263 ">A</tspan>
				<tspan direction="ltr" unicode-bidi="embed" x="1.38418 ">T</tspan>
				<tspan direction="ltr" unicode-bidi="embed" x="1.92628 ">A</tspan>
				<tspan direction="ltr" unicode-bidi="embed" x="2.65258 ">L</tspan>
				<tspan direction="ltr" unicode-bidi="embed" x="3.27362 ">I</tspan>
				<tspan direction="ltr" unicode-bidi="embed" x="3.83676 ">K</tspan>
				<tspan direction="ltr" unicode-bidi="embed" x="4.56833 ">R</tspan>
				<tspan direction="ltr" unicode-bidi="embed" x="5.29989 ">O</tspan>
				<tspan direction="ltr" unicode-bidi="embed" x="6.08409 ">K</tspan>
				<tspan direction="ltr" unicode-bidi="embed" x="6.81039 ">İ</tspan>
				<tspan direction="ltr" unicode-bidi="embed" x="7.3788 ">İ</tspan>
				<tspan direction="ltr" unicode-bidi="embed" x="7.663 ">S</tspan>
				<tspan direction="ltr" unicode-bidi="embed" x="8.33667 ">T</tspan>
				<tspan direction="ltr" unicode-bidi="embed" x="8.95245 ">E</tspan>
				<tspan direction="ltr" unicode-bidi="embed" x="9.63138 ">Ğ</tspan>
				<tspan direction="ltr" unicode-bidi="embed" x="10.41558 ">İ</tspan>
			</text>
		</g>
	</g>
</svg>
